<svg width="19" height="19" viewBox="0 0 19 19" fill="none" xmlns="http://www.w3.org/2000/svg">
<path d="M16.4227 0.857771C15.9857 0.857771 15.6311 1.21244 15.6311 1.64944V2.30929C13.9306 0.8265 11.7618 0 9.45052 0C4.23938 0 0 4.25481 0 9.48417C0 9.92117 0.354667 10.2758 0.791667 10.2758C1.22867 10.2758 1.58333 9.92117 1.58333 9.48417C1.58333 5.12763 5.11258 1.58333 9.45052 1.58333C11.3533 1.58333 13.1409 2.25704 14.55 3.4671H13.8245C13.3875 3.4671 13.0328 3.82177 13.0328 4.25877C13.0328 4.69577 13.3875 5.05044 13.8245 5.05044H16.4227C16.8597 5.05044 17.2144 4.69577 17.2144 4.25877V1.64944C17.2144 1.21244 16.8597 0.857771 16.4227 0.857771Z" fill="#C5C5C5"/>
<path d="M18.2083 8.72412C17.7713 8.72412 17.4166 9.07879 17.4166 9.51579C17.4166 13.8723 13.8874 17.4166 9.54943 17.4166C7.66883 17.4166 5.90025 16.7595 4.499 15.576H5.25939C5.69639 15.576 6.05106 15.2213 6.05106 14.7843C6.05106 14.3473 5.69639 13.9927 5.25939 13.9927H2.66075C2.65362 13.9927 2.64729 13.9946 2.64056 13.9946C2.61048 13.9954 2.58079 13.9994 2.5507 14.0037C2.52854 14.0069 2.50637 14.0089 2.4846 14.014C2.45848 14.02 2.43275 14.0295 2.40702 14.0382C2.38327 14.0465 2.35912 14.0536 2.33616 14.0639C2.31439 14.0738 2.29381 14.0865 2.27283 14.0984C2.24789 14.1126 2.22335 14.1265 2.2 14.1431C2.19406 14.1474 2.18733 14.1498 2.18139 14.1546C2.16793 14.1649 2.15764 14.1775 2.14498 14.1886C2.124 14.2068 2.10302 14.225 2.08402 14.2456C2.0662 14.2646 2.05077 14.2844 2.03533 14.3046C2.01989 14.3248 2.00485 14.345 1.991 14.3663C1.97714 14.3885 1.96527 14.4115 1.95379 14.4344C1.94231 14.457 1.93162 14.4799 1.92252 14.5037C1.91341 14.5282 1.90629 14.5528 1.89956 14.5781C1.89323 14.6022 1.8865 14.6264 1.88254 14.6513C1.87779 14.6794 1.87581 14.7075 1.87383 14.736C1.87264 14.7523 1.86908 14.7681 1.86908 14.7847V17.3941C1.86908 17.8311 2.22375 18.1857 2.66075 18.1857C3.09775 18.1857 3.45241 17.8311 3.45241 17.3941V16.7647C5.13985 18.2012 7.27616 19 9.54943 19C14.7606 19 19 14.7451 19 9.51579C19 9.07879 18.6453 8.72412 18.2083 8.72412Z" fill="#C5C5C5"/>
</svg>
