<svg width="425" height="125" viewBox="0 0 425 125" fill="none" xmlns="http://www.w3.org/2000/svg">
<path d="M199.794 48.9043C199.703 49.2461 199.532 49.736 199.281 50.374C199.031 51.012 198.746 51.7412 198.427 52.5615C198.108 53.359 197.755 54.2135 197.367 55.125C196.98 56.0137 196.604 56.891 196.239 57.7568C196.08 58.1442 195.886 58.429 195.658 58.6113C195.453 58.7936 195.02 58.8962 194.359 58.9189L184.379 59.0898L183.148 74.2656C183.126 74.4707 183.069 74.6758 182.978 74.8809C182.886 75.0632 182.75 75.2113 182.567 75.3252C182.499 75.3708 182.226 75.5075 181.747 75.7354C181.291 75.9404 180.71 76.1911 180.004 76.4873C179.298 76.7835 178.523 77.1025 177.68 77.4443C176.837 77.7861 176.005 78.0938 175.185 78.3672C174.364 78.6634 173.612 78.9027 172.929 79.085C172.245 79.29 171.71 79.3926 171.322 79.3926C170.867 79.3926 170.445 79.3014 170.058 79.1191C169.693 78.9596 169.511 78.6178 169.511 78.0938C169.488 76.9544 169.511 75.7012 169.579 74.334C169.67 72.944 169.773 71.5426 169.887 70.1299C170.001 68.6943 170.126 67.293 170.263 65.9258C170.399 64.5358 170.513 63.2712 170.604 62.1318L170.844 59.2607C168.93 59.2607 167.562 59.2152 166.742 59.124C165.922 59.0101 165.512 58.7367 165.512 58.3037C165.512 58.0075 165.683 57.6201 166.024 57.1416C166.503 56.4808 167.038 55.6833 167.631 54.749C168.246 53.8148 168.827 52.9033 169.374 52.0146C169.944 51.126 170.434 50.3398 170.844 49.6562C171.277 48.9727 171.55 48.5511 171.664 48.3916L172.313 38.9922C171.881 38.9922 171.505 39.0036 171.186 39.0264C170.867 39.0264 170.57 39.0378 170.297 39.0605C170.046 39.0605 169.807 39.0719 169.579 39.0947C169.351 39.0947 169.112 39.0947 168.861 39.0947C167.768 39.0947 166.981 39.0378 166.503 38.9238C166.047 38.7871 165.819 38.5479 165.819 38.2061C165.819 38.0465 165.956 37.7161 166.229 37.2148C166.503 36.7135 166.833 36.1439 167.221 35.5059C167.631 34.8451 168.064 34.1615 168.52 33.4551C168.998 32.7259 169.42 32.0537 169.784 31.4385L171.835 27.9521L187.387 27.4053C189.392 27.3369 191.386 27.2686 193.368 27.2002C195.351 27.109 197.174 27.0293 198.837 26.9609C200.523 26.8926 201.97 26.8356 203.178 26.79C204.385 26.7217 205.229 26.6761 205.707 26.6533C205.73 26.6533 205.787 26.6647 205.878 26.6875C205.992 26.6875 206.106 26.7217 206.22 26.79C206.334 26.8356 206.436 26.9268 206.527 27.0635C206.641 27.2002 206.698 27.3939 206.698 27.6445C206.698 27.7812 206.539 28.237 206.22 29.0117C205.901 29.7865 205.445 30.9372 204.853 32.4639L203.349 36.4287C203.189 36.8161 203.007 37.1123 202.802 37.3174C202.597 37.5225 202.164 37.6364 201.503 37.6592C200.728 37.682 199.942 37.7161 199.145 37.7617C198.347 37.8073 197.527 37.8529 196.684 37.8984L186.293 38.4111C186.156 39.2998 186.054 39.9606 185.985 40.3936C185.94 40.8265 185.906 41.1911 185.883 41.4873C185.883 41.7607 185.883 42.0456 185.883 42.3418C185.883 42.6152 185.871 43.0596 185.849 43.6748C185.826 44.1077 185.792 44.4723 185.746 44.7686C185.723 45.0648 185.689 45.361 185.644 45.6572C185.621 45.9307 185.587 46.2269 185.541 46.5459C185.518 46.8649 185.495 47.2637 185.473 47.7422C186.977 47.6966 188.446 47.651 189.882 47.6055C191.34 47.5599 192.673 47.5143 193.881 47.4688C195.111 47.4232 196.171 47.389 197.06 47.3662C197.948 47.3206 198.575 47.2979 198.939 47.2979C199.122 47.2979 199.327 47.3662 199.555 47.5029C199.783 47.6396 199.896 47.9017 199.896 48.2891C199.896 48.4714 199.862 48.6764 199.794 48.9043ZM220.575 53.6895C220.575 55.3301 220.746 56.9821 221.088 58.6455C221.452 60.2861 222.045 61.7673 222.865 63.0889C223.686 64.4105 224.768 65.4814 226.112 66.3018C227.457 67.1221 229.12 67.5322 231.103 67.5322C232.629 67.4411 233.962 67.1335 235.102 66.6094C236.264 66.0625 237.255 65.3675 238.075 64.5244C238.918 63.6585 239.613 62.6787 240.16 61.585C240.707 60.4684 241.14 59.3063 241.459 58.0986C241.778 56.8682 241.994 55.6149 242.108 54.3389C242.245 53.0628 242.313 51.8324 242.313 50.6475C242.313 49.0296 242.097 47.4688 241.664 45.9648C241.231 44.4382 240.582 43.0938 239.716 41.9316C238.85 40.7695 237.768 39.8353 236.469 39.1289C235.193 38.4225 233.7 38.0693 231.991 38.0693C230.647 38.0693 229.428 38.32 228.334 38.8213C227.263 39.3226 226.306 39.9948 225.463 40.8379C224.62 41.6582 223.891 42.6152 223.275 43.709C222.683 44.7799 222.182 45.8965 221.771 47.0586C221.384 48.1979 221.088 49.3486 220.883 50.5107C220.701 51.6501 220.598 52.7096 220.575 53.6895ZM227.24 78.7773C223.822 78.7773 220.769 78.1393 218.08 76.8633C215.391 75.5872 213.113 73.8669 211.244 71.7021C209.398 69.5146 207.974 66.9967 206.972 64.1484C205.992 61.2773 205.502 58.2467 205.502 55.0566C205.502 51.4792 206.003 48.1865 207.006 45.1787C208.031 42.1481 209.455 39.4707 211.278 37.1465C213.101 34.7995 215.266 32.8285 217.772 31.2334C220.302 29.6156 223.07 28.4193 226.078 27.6445C226.352 27.6445 226.557 27.4281 226.693 26.9951C226.853 26.5622 226.99 26.0837 227.104 25.5596C227.217 25.0355 227.354 24.557 227.514 24.124C227.673 23.6911 227.901 23.4746 228.197 23.4746C232.618 23.9303 236.594 24.7165 240.126 25.833C243.658 26.9268 246.654 28.499 249.115 30.5498C251.576 32.6006 253.456 35.1982 254.755 38.3428C256.076 41.4645 256.737 45.2812 256.737 49.793C256.737 52.6868 256.384 55.4098 255.678 57.9619C254.971 60.514 253.98 62.8724 252.704 65.0371C251.428 67.179 249.89 69.1045 248.09 70.8135C246.312 72.4997 244.33 73.9352 242.143 75.1201C239.955 76.305 237.597 77.2051 235.067 77.8203C232.561 78.4583 229.952 78.7773 227.24 78.7773ZM278.305 74.2656C278.282 74.4707 278.236 74.6758 278.168 74.8809C278.122 75.0632 277.974 75.2113 277.724 75.3252C277.632 75.3708 277.177 75.5417 276.356 75.8379C275.559 76.1113 274.625 76.4417 273.554 76.8291C272.506 77.1937 271.457 77.5583 270.409 77.9229C269.384 78.3102 268.598 78.6064 268.051 78.8115C267.777 78.9255 267.436 79.0394 267.025 79.1533C266.638 79.29 266.251 79.3584 265.863 79.3584C265.544 79.3584 265.259 79.2786 265.009 79.1191C264.781 78.9596 264.667 78.6634 264.667 78.2305C264.667 77.2279 264.69 76.3164 264.735 75.4961C264.804 74.653 264.883 73.7757 264.975 72.8643C265.066 71.9528 265.157 70.9502 265.248 69.8564C265.362 68.7399 265.465 67.4183 265.556 65.8916C265.67 63.8864 265.795 61.9609 265.932 60.1152C266.068 58.2467 266.205 56.3099 266.342 54.3047L266.82 48.46C266.889 47.5029 266.957 46.5345 267.025 45.5547C267.094 44.5521 267.162 43.5267 267.23 42.4785L267.606 38.3086C267.606 38.263 267.538 38.2402 267.401 38.2402C267.219 38.2402 266.911 38.2858 266.479 38.377C266.046 38.4453 265.533 38.5365 264.94 38.6504C264.348 38.7643 263.687 38.8896 262.958 39.0264C262.252 39.1403 261.522 39.2542 260.771 39.3682C260.588 39.3682 260.406 39.334 260.224 39.2656C260.064 39.1745 259.984 39.0719 259.984 38.958C259.984 38.8669 260.007 38.7985 260.053 38.7529L265.59 29.0801C266.843 28.8066 268.188 28.5332 269.623 28.2598C271.081 27.9635 272.642 27.7015 274.306 27.4736C275.969 27.2458 277.735 27.0635 279.604 26.9268C281.472 26.7673 283.454 26.6875 285.551 26.6875C287.921 26.7331 290.222 26.9723 292.455 27.4053C294.711 27.8154 296.705 28.5218 298.437 29.5244C300.191 30.5042 301.592 31.8486 302.641 33.5576C303.712 35.2438 304.247 37.3857 304.247 39.9834C304.247 41.4189 303.996 42.7406 303.495 43.9482C303.017 45.1559 302.39 46.2497 301.615 47.2295C300.863 48.1865 300.032 49.041 299.12 49.793C298.209 50.5221 297.331 51.1488 296.488 51.6729C295.668 52.1969 294.939 52.6185 294.301 52.9375C293.663 53.2337 293.23 53.4274 293.002 53.5186C293.002 53.5641 293.013 53.6211 293.036 53.6895C293.082 53.7578 293.161 53.8945 293.275 54.0996C293.389 54.2819 293.549 54.5553 293.754 54.9199C293.982 55.2617 294.267 55.7402 294.608 56.3555C294.973 56.9023 295.406 57.6315 295.907 58.543C296.409 59.4544 297.001 60.5368 297.685 61.79C298.391 63.0205 299.2 64.3991 300.111 65.9258C301.023 67.4525 302.071 69.0931 303.256 70.8477C303.643 71.1895 304.088 71.4059 304.589 71.4971C305.09 71.5654 305.557 71.611 305.99 71.6338C306.423 71.6338 306.788 71.6566 307.084 71.7021C307.38 71.7249 307.528 71.8617 307.528 72.1123C307.528 72.2946 307.335 72.5111 306.947 72.7617C306.583 72.9896 306.15 73.2288 305.648 73.4795C305.147 73.7301 304.634 73.9694 304.11 74.1973C303.609 74.4251 303.222 74.6074 302.948 74.7441C302.401 75.0176 301.832 75.2796 301.239 75.5303C300.647 75.7809 300.009 76.0658 299.325 76.3848C298.642 76.681 297.878 77.0342 297.035 77.4443C296.215 77.8545 295.281 78.3444 294.232 78.9141C293.959 79.0736 293.697 79.1761 293.446 79.2217C293.218 79.29 293.002 79.3242 292.797 79.3242C292.387 79.3242 292.034 79.2217 291.737 79.0166C291.441 78.8343 291.19 78.6064 290.985 78.333C290.78 78.0596 290.609 77.7747 290.473 77.4785C290.359 77.2051 290.256 76.9772 290.165 76.7949L279.979 55.3301L278.305 74.2656ZM280.39 51.126C281.552 51.126 282.759 50.8298 284.013 50.2373C285.266 49.6449 286.405 48.8815 287.431 47.9473C288.456 47.013 289.299 45.9535 289.96 44.7686C290.621 43.5837 290.951 42.3874 290.951 41.1797C290.951 37.8757 288.969 36.2236 285.004 36.2236C284.252 36.2236 283.625 36.2806 283.124 36.3945C282.623 36.4857 282.167 36.554 281.757 36.5996L280.39 51.126ZM311.596 64.2852C311.596 64.2624 311.584 64.2396 311.562 64.2168C311.562 64.194 311.562 64.1712 311.562 64.1484C311.562 63.7611 311.767 63.5674 312.177 63.5674C312.382 63.5674 312.61 63.6699 312.86 63.875C314.091 65.0371 315.458 65.96 316.962 66.6436C318.466 67.3271 320.106 67.6689 321.884 67.6689C322.362 67.6689 322.909 67.6234 323.524 67.5322C324.14 67.4183 324.721 67.2474 325.268 67.0195C325.814 66.7689 326.27 66.4499 326.635 66.0625C327.022 65.6751 327.216 65.1852 327.216 64.5928C327.216 63.932 327.056 63.3395 326.737 62.8154C326.418 62.2913 325.997 61.847 325.473 61.4824C325.268 61.3457 324.96 61.1178 324.55 60.7988C324.14 60.4798 323.673 60.1152 323.148 59.7051C322.624 59.2949 322.077 58.862 321.508 58.4062C320.938 57.9277 320.391 57.4834 319.867 57.0732C319.366 56.6403 318.91 56.2529 318.5 55.9111C318.09 55.5693 317.782 55.3073 317.577 55.125C316.233 54.1224 315.162 53.1084 314.364 52.083C313.59 51.0576 312.997 49.9867 312.587 48.8701C312.177 47.7536 311.915 46.6029 311.801 45.418C311.687 44.2103 311.63 42.9342 311.63 41.5898C311.63 39.5846 312.108 37.682 313.065 35.8818C314.022 34.0817 315.367 32.5208 317.099 31.1992C318.853 29.8548 320.95 28.7952 323.388 28.0205C325.826 27.223 328.537 26.8242 331.522 26.8242C331.887 26.8242 332.434 26.8698 333.163 26.9609C333.892 27.0293 334.69 27.1546 335.556 27.3369C336.444 27.5192 337.344 27.7699 338.256 28.0889C339.167 28.4079 339.999 28.818 340.751 29.3193C341.002 29.5016 341.195 29.6839 341.332 29.8662C341.492 30.0485 341.594 30.3333 341.64 30.7207C341.754 32.5664 341.845 34.3893 341.913 36.1895C341.981 37.9668 342.073 39.8581 342.187 41.8633C342.187 42.2507 342.107 42.5127 341.947 42.6494C341.788 42.7633 341.583 42.8203 341.332 42.8203C341.081 42.8203 340.888 42.752 340.751 42.6152C340.09 41.9544 339.407 41.305 338.7 40.667C337.994 40.029 337.253 39.4707 336.479 38.9922C335.704 38.4909 334.872 38.0921 333.983 37.7959C333.118 37.4997 332.172 37.3516 331.146 37.3516C330.531 37.3516 329.916 37.4085 329.301 37.5225C328.686 37.6136 328.127 37.7959 327.626 38.0693C327.125 38.3428 326.715 38.7188 326.396 39.1973C326.099 39.6758 325.951 40.2796 325.951 41.0088C325.951 41.7835 326.042 42.4557 326.225 43.0254C326.43 43.5951 326.92 44.1305 327.694 44.6318L335.897 50.2031C337.401 51.2741 338.62 52.3451 339.555 53.416C340.489 54.4642 341.218 55.5124 341.742 56.5605C342.266 57.6087 342.619 58.6455 342.802 59.6709C343.007 60.6735 343.109 61.6647 343.109 62.6445C343.109 64.2396 342.847 65.7435 342.323 67.1562C341.799 68.569 341.081 69.8792 340.17 71.0869C339.258 72.2718 338.188 73.3428 336.957 74.2998C335.749 75.234 334.451 76.043 333.061 76.7266C331.671 77.3874 330.224 77.8887 328.72 78.2305C327.239 78.5951 325.78 78.7773 324.345 78.7773C323.228 78.7773 322.123 78.7546 321.029 78.709C319.958 78.6862 318.91 78.5951 317.885 78.4355C316.859 78.2988 315.868 78.071 314.911 77.752C313.954 77.4557 313.043 77.0342 312.177 76.4873L311.596 64.2852ZM378.759 48.6309C378.668 48.9499 378.497 49.4056 378.246 49.998C377.995 50.5677 377.699 51.2171 377.357 51.9463C377.038 52.6755 376.685 53.4616 376.298 54.3047C375.933 55.125 375.569 55.9567 375.204 56.7998C375.067 57.1188 374.942 57.3581 374.828 57.5176C374.714 57.6543 374.532 57.7568 374.281 57.8252C374.031 57.8936 373.677 57.9391 373.222 57.9619C372.789 57.9619 372.174 57.9733 371.376 57.9961L366.625 58.0986L365.668 68.5576H383.202V69.8906C383.157 69.9362 382.963 70.2438 382.621 70.8135C382.279 71.3604 381.881 72.0212 381.425 72.7959C380.969 73.5706 380.491 74.3568 379.989 75.1543C379.488 75.929 379.066 76.5557 378.725 77.0342C378.497 77.4443 378.235 77.7633 377.938 77.9912C377.642 78.2419 377.312 78.4242 376.947 78.5381C376.605 78.652 376.218 78.7204 375.785 78.7432C375.375 78.766 374.919 78.7773 374.418 78.7773C372.367 78.7773 370.225 78.7318 367.992 78.6406C365.782 78.5495 363.572 78.4355 361.361 78.2988C359.151 78.1621 356.986 78.0026 354.867 77.8203C352.771 77.6608 350.823 77.4899 349.022 77.3076C348.863 77.2848 348.715 77.1937 348.578 77.0342C348.464 76.8747 348.407 76.6924 348.407 76.4873C348.316 76.4873 348.373 76.2936 348.578 75.9062C348.806 75.5189 349.114 75.0176 349.501 74.4023C349.888 73.7871 350.31 73.0921 350.766 72.3174C351.244 71.5199 351.7 70.7223 352.133 69.9248L352.68 62.2344C352.771 60.9355 352.839 59.9671 352.885 59.3291C352.953 58.6911 352.987 58.3493 352.987 58.3037C351.62 58.2809 350.595 58.2126 349.911 58.0986C349.25 57.9847 348.92 57.734 348.92 57.3467C348.92 57.1644 349.079 56.8226 349.398 56.3213C349.74 55.82 350.15 55.2503 350.629 54.6123C351.107 53.9515 351.609 53.2679 352.133 52.5615C352.68 51.8551 353.158 51.2057 353.568 50.6133L354.423 38.9922H354.32C353.819 39.015 353.363 39.0378 352.953 39.0605C352.543 39.0605 352.167 39.0605 351.825 39.0605C350.731 39.0605 349.945 39.0036 349.467 38.8896C349.011 38.7529 348.783 38.5137 348.783 38.1719C348.783 38.0124 348.92 37.682 349.193 37.1807C349.467 36.6794 349.809 36.1097 350.219 35.4717C350.629 34.8109 351.062 34.1273 351.518 33.4209C351.973 32.6917 352.383 32.0195 352.748 31.4043L354.799 27.918H369.086L385.937 26.6875C385.959 26.6875 386.016 26.6989 386.107 26.7217C386.221 26.7217 386.335 26.7559 386.449 26.8242C386.563 26.8698 386.666 26.9609 386.757 27.0977C386.871 27.2344 386.928 27.4281 386.928 27.6787L386.415 29.4561C386.256 29.9574 386.062 30.4928 385.834 31.0625C385.606 31.6094 385.355 32.179 385.082 32.7715L383.578 36.7363C383.419 37.1237 383.236 37.4199 383.031 37.625C382.826 37.8301 382.393 37.944 381.732 37.9668C380.001 38.0124 378.064 38.0921 375.922 38.2061C373.803 38.2972 371.365 38.3883 368.607 38.4795C368.516 38.7985 368.471 39.0605 368.471 39.2656C368.471 39.4479 368.448 39.8125 368.402 40.3594L368.231 41.9316C368.186 42.6608 368.118 43.4469 368.026 44.29C367.935 45.1331 367.821 46.1699 367.685 47.4004C368.847 47.3548 369.975 47.3092 371.068 47.2637C372.185 47.2181 373.199 47.1839 374.11 47.1611C375.022 47.1156 375.808 47.0814 376.469 47.0586C377.152 47.0358 377.631 47.0244 377.904 47.0244C378.087 47.0244 378.292 47.0928 378.52 47.2295C378.747 47.3662 378.861 47.6283 378.861 48.0156C378.861 48.1979 378.827 48.403 378.759 48.6309Z" fill="url(#paint0_linear)"/>
<path d="M167.7 114.53H168.48V104.78H176.52V104.03H168.48V95.51H178.86V94.79H167.7V114.53ZM187.973 114.8C191.483 114.8 194.213 112.34 194.213 107.51V107.24C194.213 102.41 191.633 100.07 187.973 100.07C184.493 100.07 181.763 102.5 181.763 107.3V107.63C181.763 112.46 184.313 114.8 187.973 114.8ZM187.973 114.17C184.763 114.17 182.483 112.13 182.483 107.69V107.27C182.483 102.95 184.793 100.7 187.973 100.7C191.183 100.7 193.493 102.59 193.493 107.18V107.57C193.493 111.98 191.183 114.17 187.973 114.17ZM198.044 114.59H198.824V102.83C199.844 101.69 201.464 100.79 203.294 100.79C203.564 100.79 203.894 100.85 204.134 100.91V100.22C203.954 100.16 203.624 100.13 203.324 100.13C201.374 100.13 199.754 101.15 198.854 102.11H198.794V100.28H198.044V114.59ZM215.835 114.53H227.235V113.84H216.645V104.78H224.775V104.06H216.645V95.51H227.235V94.79H215.835V114.53ZM234.206 114.59H234.986L240.506 100.28H239.666L234.656 113.54H234.596L229.526 100.28H228.716L234.206 114.59ZM249.623 114.8C251.693 114.8 253.223 114.32 254.093 113.81V113.24C253.133 113.66 251.633 114.14 249.713 114.14C245.603 114.14 243.713 111.95 243.713 107.63V107.12H254.633V106.76C254.633 102.59 252.953 100.07 249.113 100.07C245.693 100.07 242.963 102.38 242.963 107.3V107.63C242.963 112.34 245.183 114.8 249.623 114.8ZM249.083 100.7C252.383 100.7 253.823 102.89 253.823 106.49H243.743C243.983 102.56 246.233 100.7 249.083 100.7ZM258.395 114.59H259.175V102.83C260.195 101.69 261.815 100.79 263.645 100.79C263.915 100.79 264.245 100.85 264.485 100.91V100.22C264.305 100.16 263.975 100.13 263.675 100.13C261.725 100.13 260.105 101.15 259.205 102.11H259.145V100.28H258.395V114.59ZM268.455 119.18C270.525 119.18 271.275 117.98 271.935 116.18L278.385 100.34H277.605L272.745 112.25H272.685L267.405 100.34H266.625L272.325 113.24L271.245 116.06C270.645 117.59 270.045 118.52 268.365 118.52C267.825 118.52 267.285 118.43 266.865 118.31V118.88C267.255 119.03 267.825 119.18 268.455 119.18ZM286.879 114.8C290.389 114.8 293.119 112.34 293.119 107.51V107.24C293.119 102.41 290.539 100.07 286.879 100.07C283.399 100.07 280.669 102.5 280.669 107.3V107.63C280.669 112.46 283.219 114.8 286.879 114.8ZM286.879 114.17C283.669 114.17 281.389 112.13 281.389 107.69V107.27C281.389 102.95 283.699 100.7 286.879 100.7C290.089 100.7 292.399 102.59 292.399 107.18V107.57C292.399 111.98 290.089 114.17 286.879 114.17ZM297.01 114.59H297.76V102.38C299.5 101.27 301.36 100.73 303.1 100.73C305.62 100.73 306.76 101.57 306.76 103.94V114.59H307.51V103.82C307.51 101.12 306.01 100.07 303.37 100.07C301.57 100.07 299.56 100.61 297.79 101.69H297.73V100.28H297.01V114.59ZM317.944 114.8C320.014 114.8 321.544 114.32 322.414 113.81V113.24C321.454 113.66 319.954 114.14 318.034 114.14C313.924 114.14 312.034 111.95 312.034 107.63V107.12H322.954V106.76C322.954 102.59 321.274 100.07 317.434 100.07C314.014 100.07 311.284 102.38 311.284 107.3V107.63C311.284 112.34 313.504 114.8 317.944 114.8ZM317.404 100.7C320.704 100.7 322.144 102.89 322.144 106.49H312.064C312.304 102.56 314.554 100.7 317.404 100.7ZM326.146 94.22H327.406C327.406 95.75 326.446 96.83 325.186 97.16V97.76C326.896 97.4 328.036 95.99 328.036 94.22V92.33H326.146V94.22ZM334.939 114.8C338.359 114.8 339.649 113.09 339.649 110.99C339.649 108.59 338.419 107.78 336.019 107.06L334.279 106.55C332.239 105.92 331.519 105.2 331.519 103.46C331.519 101.81 332.719 100.73 335.179 100.73C336.559 100.73 337.939 101.09 338.929 101.57V100.94C338.149 100.49 336.919 100.07 335.119 100.07C332.269 100.07 330.799 101.45 330.799 103.49C330.799 105.65 331.819 106.58 334.009 107.18L335.749 107.72C337.999 108.35 338.899 109.04 338.899 111.02C338.899 112.76 337.909 114.14 334.879 114.14C332.869 114.14 331.639 113.66 330.529 113.12V113.78C331.489 114.29 332.959 114.8 334.939 114.8ZM355.914 114.77C360.324 114.77 362.214 112.73 362.214 109.52C362.214 106.28 360.204 105.17 357.174 104.12L355.944 103.76C352.674 102.59 351.564 101.6 351.564 99.11C351.564 96.89 353.124 95.27 356.424 95.27C358.554 95.27 360.204 95.78 361.194 96.38V95.66C360.174 95.09 358.614 94.58 356.454 94.58C352.644 94.58 350.784 96.59 350.784 99.17C350.784 101.99 352.224 103.28 355.674 104.45L356.934 104.87C359.634 105.74 361.404 106.76 361.404 109.58C361.404 112.4 359.754 114.08 355.884 114.08C353.784 114.08 351.774 113.51 350.364 112.7V113.39C351.564 114.11 353.604 114.77 355.914 114.77ZM369.833 114.8C372.083 114.8 373.583 113.93 374.243 113.3H374.273L374.333 114.59H375.053V104.06C375.053 101.21 373.433 100.07 370.673 100.07C369.203 100.07 367.883 100.31 366.683 100.79V101.39C367.793 101.03 369.053 100.73 370.433 100.73C373.013 100.73 374.243 101.63 374.243 104.21V106.46L369.713 106.94C366.803 107.27 365.393 108.59 365.393 111.02C365.393 113.36 367.163 114.8 369.833 114.8ZM369.953 114.2C367.583 114.2 366.173 112.94 366.173 110.96C366.173 108.89 367.313 107.81 369.893 107.57L374.243 107.06V112.67C373.403 113.45 371.963 114.2 369.953 114.2ZM380.913 114.5H381.663V100.88H385.323V100.22H381.663V97.85C381.663 95.09 383.103 94.04 385.233 94.04C386.193 94.04 386.943 94.19 387.483 94.4V93.8C386.943 93.59 386.193 93.41 385.143 93.41C382.623 93.41 380.913 94.76 380.913 97.82V100.22H378.543V100.88H380.913V114.5ZM394.526 114.8C396.596 114.8 398.126 114.32 398.996 113.81V113.24C398.036 113.66 396.536 114.14 394.616 114.14C390.506 114.14 388.616 111.95 388.616 107.63V107.12H399.536V106.76C399.536 102.59 397.856 100.07 394.016 100.07C390.596 100.07 387.866 102.38 387.866 107.3V107.63C387.866 112.34 390.086 114.8 394.526 114.8ZM393.986 100.7C397.286 100.7 398.726 102.89 398.726 106.49H388.646C388.886 102.56 391.136 100.7 393.986 100.7ZM407.434 114.71C408.364 114.71 409.174 114.44 409.594 114.29V113.69C409.024 113.87 408.274 114.02 407.584 114.02C405.694 114.02 405.154 113.36 405.154 111.77V100.94H409.294V100.25H405.154V96.86H404.404V100.25H402.244V100.94H404.404V111.89C404.404 113.75 405.364 114.71 407.434 114.71ZM413.651 119.18C415.721 119.18 416.471 117.98 417.131 116.18L423.581 100.34H422.801L417.941 112.25H417.881L412.601 100.34H411.821L417.521 113.24L416.441 116.06C415.841 117.59 415.241 118.52 413.561 118.52C413.021 118.52 412.481 118.43 412.061 118.31V118.88C412.451 119.03 413.021 119.18 413.651 119.18Z" fill="#949494"/>
<path d="M6.20429 107.412L41.7291 29.6125C42.6574 27.5797 43.1215 26.5632 43.8451 25.8185C44.4849 25.1602 45.2671 24.6575 46.1317 24.349C47.1097 24 48.2271 24 50.4618 24H58.4831C63.3707 24 65.8146 24 67.3371 25.0292C68.6678 25.9287 69.5822 27.3242 69.8758 28.9034C70.2117 30.7102 69.2361 32.9508 67.285 37.4322L33.4125 115.232C32.504 117.319 32.0497 118.362 31.3241 119.128C30.6827 119.804 29.8924 120.322 29.016 120.64C28.0244 121 26.8865 121 24.6106 121H14.937C9.96595 121 7.48044 121 5.94903 119.953C4.61096 119.038 3.7 117.621 3.42353 116.023C3.10711 114.195 4.1395 111.934 6.20429 107.412Z" fill="url(#paint1_linear)"/>
<path d="M65.6067 60.8906L69.825 51.333L69.825 51.3329C72.5152 45.2378 73.8602 42.1902 75.766 41.2209C77.4222 40.3786 79.3752 40.3511 81.0545 41.1465C82.9868 42.0618 84.4171 45.0703 87.2777 51.0874L113.992 107.278C116.158 111.835 117.241 114.113 116.942 115.959C116.681 117.572 115.773 119.009 114.429 119.937C112.89 121 110.367 121 105.322 121H95.7729C93.5419 121 92.4264 121 91.4496 120.652C90.5861 120.344 89.8046 119.843 89.165 119.186C88.4415 118.443 87.9766 117.429 87.0466 115.401L65.6631 68.7683C65.0004 67.3231 64.669 66.6005 64.5349 65.8472C64.416 65.1796 64.4111 64.4967 64.5204 63.8275C64.6438 63.0724 64.9648 62.3452 65.6067 60.8907L65.6067 60.8906Z" fill="url(#paint2_linear)"/>
<path d="M47.6287 107.778L50.9452 99.6373C53.6235 93.0633 54.9627 89.7763 56.9052 88.7576C58.5914 87.8734 60.5972 87.8419 62.3102 88.6729C64.2837 89.6301 65.7252 92.8736 68.6083 99.3604L72.2263 107.501C74.2258 112 75.2255 114.249 74.8979 116.065C74.6116 117.652 73.6986 119.057 72.3648 119.963C70.8384 121 68.3769 121 63.4537 121H56.5192C51.7403 121 49.3509 121 47.8405 119.994C46.5199 119.115 45.6012 117.749 45.2853 116.194C44.9241 114.416 45.8256 112.203 47.6287 107.778Z" fill="url(#paint3_linear)"/>
<defs>
<linearGradient id="paint0_linear" x1="161" y1="0" x2="237.293" y2="157.798" gradientUnits="userSpaceOnUse">
<stop stop-color="#7E98D4"/>
<stop offset="1" stop-color="#FBBAC8"/>
</linearGradient>
<linearGradient id="paint1_linear" x1="60.2576" y1="24" x2="60.2576" y2="121" gradientUnits="userSpaceOnUse">
<stop stop-color="#7C97D4"/>
<stop offset="1" stop-color="#FFBBC7"/>
</linearGradient>
<linearGradient id="paint2_linear" x1="60.2576" y1="24" x2="60.2576" y2="121" gradientUnits="userSpaceOnUse">
<stop stop-color="#7C97D4"/>
<stop offset="1" stop-color="#FFBBC7"/>
</linearGradient>
<linearGradient id="paint3_linear" x1="61.0161" y1="80.3225" x2="61.0161" y2="121" gradientUnits="userSpaceOnUse">
<stop stop-color="#D4B0CC"/>
<stop offset="1" stop-color="#FEBBC8"/>
</linearGradient>
</defs>
</svg>
