<svg width="401" height="125" viewBox="0 0 401 125" fill="none" xmlns="http://www.w3.org/2000/svg">
<path d="M116.751 78.0938L118.46 54.7148C119.03 46.8763 119.451 41.1227 119.725 37.4541C119.998 33.7855 120.135 31.9626 120.135 31.9854C120.158 31.5752 120.18 31.2334 120.203 30.96C120.226 30.6865 120.271 30.4587 120.34 30.2764C120.408 30.0941 120.499 29.9574 120.613 29.8662C120.727 29.7751 120.898 29.7067 121.126 29.6611L132.952 26.8242C133.248 26.7331 133.556 26.6875 133.875 26.6875C134.194 26.6875 134.41 26.79 134.524 26.9951C134.638 27.1774 134.695 27.5648 134.695 28.1572C134.536 29.57 134.41 30.8916 134.319 32.1221C134.228 33.3525 134.148 34.526 134.08 35.6426C134.035 36.7591 133.989 37.8415 133.943 38.8896C133.898 39.915 133.841 40.9404 133.772 41.9658C133.636 43.0824 133.51 44.1989 133.396 45.3154C133.305 46.432 133.214 47.5941 133.123 48.8018C133.032 49.9867 132.929 51.2513 132.815 52.5957C132.724 53.9173 132.61 55.3643 132.474 56.9365L130.97 74.9492C130.947 75.1543 130.901 75.3594 130.833 75.5645C130.787 75.7467 130.639 75.8949 130.389 76.0088C130.366 76.0088 130.229 76.0544 129.979 76.1455C129.728 76.2367 129.397 76.362 128.987 76.5215C128.577 76.6582 128.099 76.8063 127.552 76.9658C127.005 77.1253 126.424 77.2734 125.809 77.4102C124.783 77.638 123.883 77.8659 123.108 78.0938C122.356 78.3216 121.684 78.5267 121.092 78.709C120.499 78.9141 119.952 79.0736 119.451 79.1875C118.95 79.3014 118.449 79.3584 117.947 79.3584C117.605 79.3584 117.321 79.2673 117.093 79.085C116.865 78.9027 116.751 78.5723 116.751 78.0938ZM166.482 78.2305C166.232 78.2988 165.901 78.4014 165.491 78.5381C165.081 78.6976 164.682 78.7773 164.295 78.7773C163.976 78.7773 163.691 78.6976 163.44 78.5381C163.213 78.3786 163.099 78.1051 163.099 77.7178V77.5127C163.235 76.2822 163.349 75.2454 163.44 74.4023C163.532 73.5365 163.611 72.7617 163.68 72.0781C163.771 71.3717 163.839 70.6768 163.885 69.9932C163.953 69.2868 164.033 68.4779 164.124 67.5664C164.215 66.6322 164.318 65.5384 164.432 64.2852C164.568 63.0091 164.728 61.4255 164.91 59.5342C165.024 58.3721 165.127 57.1872 165.218 55.9795C165.309 54.7718 165.354 53.6553 165.354 52.6299C165.354 51.9463 165.298 51.3197 165.184 50.75C165.092 50.1576 164.91 49.6562 164.637 49.2461C164.386 48.8132 164.033 48.4827 163.577 48.2549C163.121 48.027 162.54 47.9131 161.834 47.9131C161.31 47.9131 160.581 48.027 159.646 48.2549C158.735 48.4827 157.824 48.8587 156.912 49.3828C156.001 49.9069 155.192 50.6019 154.485 51.4678C153.779 52.3109 153.38 53.359 153.289 54.6123C153.152 56.2985 153.027 57.7454 152.913 58.9531C152.799 60.138 152.697 61.152 152.605 61.9951C152.514 62.8154 152.435 63.4876 152.366 64.0117C152.321 64.5358 152.286 64.9801 152.264 65.3447C152.241 65.4359 152.207 65.6865 152.161 66.0967C152.116 66.5068 152.059 66.9967 151.99 67.5664C151.945 68.1361 151.888 68.7399 151.819 69.3779C151.774 70.016 151.717 70.6198 151.648 71.1895C151.603 71.7591 151.557 72.249 151.512 72.6592C151.489 73.0693 151.478 73.32 151.478 73.4111C151.478 73.5934 151.478 73.7529 151.478 73.8896C151.5 74.0036 151.512 74.1175 151.512 74.2314C151.512 74.4137 151.421 74.5732 151.238 74.71C151.079 74.8239 150.703 74.9606 150.11 75.1201L141.053 78.2305C140.802 78.3216 140.472 78.4355 140.062 78.5723C139.651 78.709 139.253 78.7773 138.865 78.7773C138.546 78.7773 138.261 78.6976 138.011 78.5381C137.783 78.3786 137.669 78.1051 137.669 77.7178L140.779 42.7861C140.848 42.0342 140.927 41.5215 141.019 41.248C141.132 40.9518 141.395 40.7581 141.805 40.667C143.878 40.2568 146.009 39.8467 148.196 39.4365C150.384 39.0036 152.514 38.4567 154.588 37.7959C154.77 37.7959 154.873 37.8301 154.896 37.8984C154.941 37.944 154.964 38.0238 154.964 38.1377C154.964 38.1833 154.952 38.2516 154.93 38.3428C154.93 38.4339 154.896 38.639 154.827 38.958C154.782 39.277 154.702 39.7669 154.588 40.4277C154.497 41.0658 154.36 41.9658 154.178 43.1279C155.75 42.2165 157.22 41.4873 158.587 40.9404C159.977 40.3708 161.276 39.9378 162.483 39.6416C163.714 39.3226 164.865 39.1175 165.936 39.0264C167.007 38.9124 168.009 38.8555 168.943 38.8555C172.156 38.8555 174.492 39.8353 175.95 41.7949C177.409 43.7318 178.138 46.6484 178.138 50.5449C178.138 51.0918 178.126 51.6615 178.104 52.2539C178.081 52.8236 178.035 53.416 177.967 54.0312L176.395 68.7285C176.281 69.6855 176.212 70.5742 176.189 71.3945C176.167 72.1921 176.155 73.1263 176.155 74.1973C176.155 74.3796 176.155 74.5391 176.155 74.6758C176.178 74.7897 176.189 74.8923 176.189 74.9834C176.189 75.1885 176.098 75.348 175.916 75.4619C175.757 75.5758 175.381 75.724 174.788 75.9062L166.482 78.2305ZM216.351 48.9043C216.259 49.2461 216.089 49.736 215.838 50.374C215.587 51.012 215.302 51.7412 214.983 52.5615C214.664 53.359 214.311 54.2135 213.924 55.125C213.536 56.0137 213.16 56.891 212.796 57.7568C212.636 58.1442 212.443 58.429 212.215 58.6113C212.01 58.7936 211.577 58.8962 210.916 58.9189L200.936 59.0898L199.705 74.2656C199.682 74.4707 199.625 74.6758 199.534 74.8809C199.443 75.0632 199.306 75.2113 199.124 75.3252C199.056 75.3708 198.782 75.5075 198.304 75.7354C197.848 75.9404 197.267 76.1911 196.561 76.4873C195.854 76.7835 195.079 77.1025 194.236 77.4443C193.393 77.7861 192.562 78.0938 191.741 78.3672C190.921 78.6634 190.169 78.9027 189.485 79.085C188.802 79.29 188.266 79.3926 187.879 79.3926C187.423 79.3926 187.002 79.3014 186.614 79.1191C186.25 78.9596 186.067 78.6178 186.067 78.0938C186.045 76.9544 186.067 75.7012 186.136 74.334C186.227 72.944 186.329 71.5426 186.443 70.1299C186.557 68.6943 186.683 67.293 186.819 65.9258C186.956 64.5358 187.07 63.2712 187.161 62.1318L187.4 59.2607C185.486 59.2607 184.119 59.2152 183.299 59.124C182.479 59.0101 182.068 58.7367 182.068 58.3037C182.068 58.0075 182.239 57.6201 182.581 57.1416C183.06 56.4808 183.595 55.6833 184.188 54.749C184.803 53.8148 185.384 52.9033 185.931 52.0146C186.5 51.126 186.99 50.3398 187.4 49.6562C187.833 48.9727 188.107 48.5511 188.221 48.3916L188.87 38.9922C188.437 38.9922 188.061 39.0036 187.742 39.0264C187.423 39.0264 187.127 39.0378 186.854 39.0605C186.603 39.0605 186.364 39.0719 186.136 39.0947C185.908 39.0947 185.669 39.0947 185.418 39.0947C184.324 39.0947 183.538 39.0378 183.06 38.9238C182.604 38.7871 182.376 38.5479 182.376 38.2061C182.376 38.0465 182.513 37.7161 182.786 37.2148C183.06 36.7135 183.39 36.1439 183.777 35.5059C184.188 34.8451 184.62 34.1615 185.076 33.4551C185.555 32.7259 185.976 32.0537 186.341 31.4385L188.392 27.9521L203.943 27.4053C205.949 27.3369 207.942 27.2686 209.925 27.2002C211.907 27.109 213.73 27.0293 215.394 26.9609C217.08 26.8926 218.527 26.8356 219.734 26.79C220.942 26.7217 221.785 26.6761 222.264 26.6533C222.286 26.6533 222.343 26.6647 222.435 26.6875C222.549 26.6875 222.662 26.7217 222.776 26.79C222.89 26.8356 222.993 26.9268 223.084 27.0635C223.198 27.2002 223.255 27.3939 223.255 27.6445C223.255 27.7812 223.095 28.237 222.776 29.0117C222.457 29.7865 222.002 30.9372 221.409 32.4639L219.905 36.4287C219.746 36.8161 219.563 37.1123 219.358 37.3174C219.153 37.5225 218.72 37.6364 218.06 37.6592C217.285 37.682 216.499 37.7161 215.701 37.7617C214.904 37.8073 214.083 37.8529 213.24 37.8984L202.85 38.4111C202.713 39.2998 202.61 39.9606 202.542 40.3936C202.496 40.8265 202.462 41.1911 202.439 41.4873C202.439 41.7607 202.439 42.0456 202.439 42.3418C202.439 42.6152 202.428 43.0596 202.405 43.6748C202.382 44.1077 202.348 44.4723 202.303 44.7686C202.28 45.0648 202.246 45.361 202.2 45.6572C202.177 45.9307 202.143 46.2269 202.098 46.5459C202.075 46.8649 202.052 47.2637 202.029 47.7422C203.533 47.6966 205.003 47.651 206.438 47.6055C207.897 47.5599 209.23 47.5143 210.438 47.4688C211.668 47.4232 212.728 47.389 213.616 47.3662C214.505 47.3206 215.132 47.2979 215.496 47.2979C215.678 47.2979 215.883 47.3662 216.111 47.5029C216.339 47.6396 216.453 47.9017 216.453 48.2891C216.453 48.4714 216.419 48.6764 216.351 48.9043ZM247.898 49.1777C247.42 49.1322 246.884 49.0866 246.292 49.041C245.7 48.9727 245.073 48.9385 244.412 48.9385C243.41 48.9385 242.384 49.0296 241.336 49.2119C240.311 49.3714 239.354 49.7018 238.465 50.2031C237.576 50.7044 236.813 51.3994 236.175 52.2881C235.537 53.154 235.127 54.2819 234.944 55.6719C234.785 57.3581 234.648 58.748 234.534 59.8418C234.443 60.9128 234.375 61.8014 234.329 62.5078C234.284 63.1914 234.238 63.7497 234.192 64.1826C234.17 64.5928 234.147 64.9801 234.124 65.3447C234.124 65.4359 234.101 65.6865 234.056 66.0967C234.033 66.5068 233.987 66.9854 233.919 67.5322C233.851 68.0791 233.782 68.6715 233.714 69.3096C233.668 69.9476 233.611 70.54 233.543 71.0869C233.475 71.6338 233.418 72.1123 233.372 72.5225C233.349 72.9326 233.338 73.1833 233.338 73.2744C233.338 73.4567 233.338 73.6162 233.338 73.7529C233.361 73.8669 233.372 73.9808 233.372 74.0947C233.372 74.277 233.281 74.4365 233.099 74.5732C232.939 74.6872 232.563 74.8239 231.971 74.9834L222.913 78.2305C222.662 78.3216 222.332 78.4355 221.922 78.5723C221.512 78.709 221.113 78.7773 220.726 78.7773C220.407 78.7773 220.122 78.6976 219.871 78.5381C219.643 78.3786 219.529 78.1051 219.529 77.7178L222.469 43.8457C222.537 43.0938 222.617 42.5811 222.708 42.3076C222.822 42.0114 223.084 41.8177 223.494 41.7266C225.568 41.3164 227.71 40.9062 229.92 40.4961C232.13 40.0632 234.272 39.5163 236.346 38.8555C236.528 38.8555 236.631 38.8896 236.653 38.958C236.699 39.0036 236.722 39.0833 236.722 39.1973C236.722 39.2428 236.71 39.3112 236.688 39.4023C236.688 39.4935 236.653 39.6986 236.585 40.0176C236.539 40.3366 236.46 40.8265 236.346 41.4873C236.255 42.1253 236.118 43.0254 235.936 44.1875C236.984 43.3672 238.134 42.6152 239.388 41.9316C240.664 41.248 241.94 40.667 243.216 40.1885C244.492 39.6872 245.722 39.2998 246.907 39.0264C248.092 38.7301 249.129 38.582 250.018 38.582L247.898 49.1777ZM285.12 70.1299C285.097 70.221 285.086 70.3122 285.086 70.4033C285.086 70.4717 285.086 70.54 285.086 70.6084C285.086 71.1781 285.177 71.6566 285.359 72.0439C285.542 72.4085 285.735 72.7161 285.94 72.9668C286.168 73.1947 286.373 73.3883 286.556 73.5479C286.738 73.6846 286.829 73.8099 286.829 73.9238C286.829 74.2428 286.487 74.5391 285.804 74.8125L276.609 78.7432C276.587 78.766 276.507 78.7773 276.37 78.7773C276.188 78.7773 276.006 78.6178 275.823 78.2988C275.641 77.9798 275.459 77.5697 275.276 77.0684C275.117 76.5898 274.957 76.0771 274.798 75.5303C274.661 74.9606 274.536 74.4365 274.422 73.958C272.986 75.6214 271.437 76.8405 269.773 77.6152C268.11 78.39 266.458 78.7773 264.817 78.7773C262.903 78.7773 261.035 78.3558 259.212 77.5127C257.389 76.6696 255.771 75.4733 254.358 73.9238C252.946 72.3516 251.806 70.4603 250.94 68.25C250.097 66.0397 249.676 63.556 249.676 60.7988C249.676 57.5404 250.143 54.5667 251.077 51.8779C252.034 49.1891 253.322 46.8763 254.939 44.9395C256.557 43.0026 258.437 41.5101 260.579 40.4619C262.744 39.391 265.034 38.8555 267.449 38.8555C269.158 38.8555 270.776 39.2087 272.303 39.915C273.829 40.5986 275.276 41.4873 276.644 42.5811C276.78 41.8975 276.86 41.3506 276.883 40.9404C276.906 40.5303 276.951 40.2113 277.02 39.9834C277.111 39.7555 277.27 39.6074 277.498 39.5391C277.726 39.4479 278.102 39.3796 278.626 39.334C280.267 39.1061 281.896 38.901 283.514 38.7188C285.154 38.5137 286.863 38.3656 288.641 38.2744L285.12 70.1299ZM274.9 57.2441C275.128 55.9453 275.276 54.7262 275.345 53.5869C275.436 52.4248 275.504 51.3652 275.55 50.4082C275.185 50.1348 274.786 49.8499 274.354 49.5537C273.943 49.2575 273.488 48.984 272.986 48.7334C272.508 48.46 271.995 48.2435 271.448 48.084C270.924 47.9245 270.366 47.8447 269.773 47.8447C268.543 47.8447 267.506 48.2435 266.663 49.041C265.843 49.8385 265.171 50.8184 264.646 51.9805C264.145 53.1426 263.781 54.373 263.553 55.6719C263.348 56.9707 263.245 58.1214 263.245 59.124C263.245 62.7243 263.712 65.3675 264.646 67.0537C265.604 68.7171 266.925 69.5488 268.611 69.5488C269.295 69.5488 270.058 69.3551 270.901 68.9678C271.744 68.5804 272.599 68.0449 273.465 67.3613L274.9 57.2441ZM342.61 78.2305C342.36 78.2988 342.029 78.4014 341.619 78.5381C341.209 78.6976 340.81 78.7773 340.423 78.7773C340.104 78.7773 339.819 78.6976 339.568 78.5381C339.34 78.3786 339.227 78.1051 339.227 77.7178V77.5127C339.386 75.8493 339.523 74.5049 339.637 73.4795C339.751 72.4313 339.842 71.5882 339.91 70.9502C339.979 70.3122 340.035 69.8337 340.081 69.5146C340.127 69.1729 340.172 68.8652 340.218 68.5918C340.263 68.2956 340.298 67.9766 340.32 67.6348C340.366 67.293 340.423 66.8145 340.491 66.1992C340.56 65.5612 340.639 64.7295 340.73 63.7041C340.844 62.6559 340.981 61.2887 341.141 59.6025C341.232 58.6911 341.323 57.791 341.414 56.9023C341.528 55.9909 341.585 55.1592 341.585 54.4072C341.585 53.4502 341.528 52.5843 341.414 51.8096C341.323 51.012 341.141 50.3398 340.867 49.793C340.617 49.2233 340.263 48.779 339.808 48.46C339.352 48.141 338.771 47.9814 338.064 47.9814C337.632 47.9814 337.062 48.0726 336.355 48.2549C335.672 48.4372 334.977 48.7676 334.271 49.2461C333.564 49.7018 332.926 50.3171 332.356 51.0918C331.787 51.8438 331.422 52.8008 331.263 53.9629V54.0996C330.989 56.6973 330.739 58.9531 330.511 60.8672C330.306 62.7585 330.123 64.3877 329.964 65.7549C329.804 67.1221 329.668 68.2614 329.554 69.1729C329.463 70.0843 329.383 70.859 329.314 71.4971C329.246 72.1123 329.189 72.625 329.144 73.0352C329.121 73.4453 329.109 73.8327 329.109 74.1973C329.109 74.3796 329.109 74.5391 329.109 74.6758C329.132 74.7897 329.144 74.8923 329.144 74.9834C329.144 75.1657 329.052 75.3252 328.87 75.4619C328.711 75.5758 328.335 75.724 327.742 75.9062L319.71 78.2305C319.459 78.2988 319.129 78.4014 318.719 78.5381C318.309 78.6976 317.91 78.7773 317.522 78.7773C317.203 78.7773 316.919 78.6976 316.668 78.5381C316.44 78.3786 316.326 78.1051 316.326 77.7178V77.5127C316.486 75.8493 316.611 74.5049 316.702 73.4795C316.816 72.4313 316.907 71.5882 316.976 70.9502C317.067 70.3122 317.135 69.8337 317.181 69.5146C317.226 69.1729 317.26 68.8652 317.283 68.5918C317.329 68.2956 317.374 67.9766 317.42 67.6348C317.465 67.293 317.511 66.8145 317.557 66.1992C317.625 65.5612 317.705 64.7295 317.796 63.7041C317.91 62.6559 318.047 61.2887 318.206 59.6025C318.297 58.6911 318.388 57.791 318.479 56.9023C318.593 55.9909 318.65 55.1592 318.65 54.4072C318.65 53.4502 318.605 52.5843 318.514 51.8096C318.423 51.012 318.252 50.3398 318.001 49.793C317.773 49.2233 317.454 48.779 317.044 48.46C316.634 48.141 316.11 47.9814 315.472 47.9814C315.016 47.9814 314.389 48.0954 313.592 48.3232C312.817 48.5511 312.031 48.9271 311.233 49.4512C310.459 49.9753 309.764 50.6702 309.148 51.5361C308.556 52.3792 308.214 53.4274 308.123 54.6807C307.941 56.3669 307.793 57.7568 307.679 58.8506C307.565 59.9215 307.474 60.8102 307.405 61.5166C307.337 62.2002 307.28 62.7585 307.234 63.1914C307.212 63.6016 307.189 63.9889 307.166 64.3535C307.143 64.4447 307.109 64.7067 307.063 65.1396C307.018 65.5498 306.961 66.0511 306.893 66.6436C306.847 67.2132 306.79 67.8398 306.722 68.5234C306.676 69.1842 306.631 69.8109 306.585 70.4033C306.539 70.973 306.494 71.4743 306.448 71.9072C306.425 72.3174 306.414 72.568 306.414 72.6592V73.2744C306.414 73.5023 306.403 73.696 306.38 73.8555C306.357 74.015 306.289 74.1631 306.175 74.2998C306.061 74.4365 305.89 74.5618 305.662 74.6758C305.457 74.7897 305.161 74.915 304.773 75.0518L295.818 78.2305C295.568 78.3216 295.237 78.4355 294.827 78.5723C294.417 78.709 294.018 78.7773 293.631 78.7773C293.312 78.7773 293.027 78.6976 292.776 78.5381C292.549 78.3786 292.435 78.1051 292.435 77.7178L295.511 42.8545C295.579 42.1025 295.659 41.5898 295.75 41.3164C295.864 41.0202 296.126 40.8265 296.536 40.7354C298.61 40.3252 300.729 39.915 302.894 39.5049C305.058 39.0719 307.177 38.5251 309.251 37.8643C309.433 37.8643 309.536 37.8984 309.559 37.9668C309.604 38.0124 309.627 38.0921 309.627 38.2061L309.183 43.1963C310.026 42.7633 310.971 42.2962 312.02 41.7949C313.068 41.2708 314.161 40.7923 315.301 40.3594C316.463 39.9264 317.636 39.5732 318.821 39.2998C320.029 39.0036 321.202 38.8555 322.342 38.8555C323.914 38.8555 325.361 39.2201 326.683 39.9492C328.027 40.6556 329.132 41.8405 329.998 43.5039C331.023 42.8431 332.106 42.2279 333.245 41.6582C334.407 41.0885 335.581 40.5986 336.766 40.1885C337.973 39.7783 339.181 39.4593 340.389 39.2314C341.596 39.0036 342.77 38.8896 343.909 38.8896C345.345 38.8896 346.701 39.0947 347.977 39.5049C349.253 39.915 350.358 40.5872 351.292 41.5215C352.249 42.4557 353.001 43.6748 353.548 45.1787C354.095 46.6598 354.368 48.4714 354.368 50.6133C354.368 51.1602 354.357 51.7298 354.334 52.3223C354.311 52.8919 354.266 53.4844 354.197 54.0996L352.625 68.7285C352.511 69.6855 352.443 70.5742 352.42 71.3945C352.397 72.1921 352.386 73.1263 352.386 74.1973C352.386 74.3796 352.386 74.5391 352.386 74.6758C352.409 74.7897 352.42 74.8923 352.42 74.9834C352.42 75.1885 352.329 75.348 352.146 75.4619C351.987 75.5758 351.611 75.724 351.019 75.9062L342.61 78.2305ZM379.9 38.8555C382.065 38.8555 384.025 39.2656 385.779 40.0859C387.557 40.8835 389.072 41.9316 390.325 43.2305C391.601 44.5065 392.581 45.9421 393.265 47.5371C393.948 49.1322 394.29 50.7272 394.29 52.3223C394.29 53.735 393.857 55.1592 392.991 56.5947C392.125 58.0075 390.906 59.2835 389.334 60.4229C387.785 61.5622 385.916 62.485 383.729 63.1914C381.541 63.8978 379.137 64.251 376.517 64.251C375.149 64.251 373.714 64.1143 372.21 63.8408C372.301 64.8206 372.586 65.6637 373.064 66.3701C373.543 67.0765 374.147 67.6576 374.876 68.1133C375.605 68.569 376.425 68.9108 377.337 69.1387C378.271 69.3438 379.228 69.4463 380.208 69.4463C381.302 69.4463 382.35 69.3551 383.353 69.1729C384.378 68.9678 385.358 68.7057 386.292 68.3867C387.226 68.0677 388.126 67.7145 388.992 67.3271C389.858 66.9398 390.678 66.5524 391.453 66.165C391.658 66.1195 391.829 66.0853 391.966 66.0625C392.125 66.0169 392.273 65.9941 392.41 65.9941C392.41 65.9941 392.399 66.1764 392.376 66.541C392.376 66.9056 392.376 67.4183 392.376 68.0791C392.376 68.7399 392.365 69.5374 392.342 70.4717C392.342 71.4059 392.33 72.4427 392.308 73.582C392.376 73.696 392.422 73.8099 392.444 73.9238C392.467 74.0378 392.479 74.1289 392.479 74.1973C392.479 74.4707 392.228 74.7669 391.727 75.0859C391.225 75.4049 390.564 75.7354 389.744 76.0771C388.947 76.4189 388.024 76.7493 386.976 77.0684C385.95 77.3874 384.902 77.6722 383.831 77.9229C382.76 78.1963 381.723 78.4014 380.721 78.5381C379.718 78.6976 378.841 78.7773 378.089 78.7773C375.628 78.7773 373.235 78.3444 370.911 77.4785C368.61 76.6354 366.559 75.4163 364.759 73.8213C362.981 72.2262 361.557 70.2894 360.486 68.0107C359.415 65.7321 358.88 63.1686 358.88 60.3203C358.88 57.3353 359.393 54.5439 360.418 51.9463C361.443 49.3258 362.879 47.0472 364.725 45.1104C366.593 43.1735 368.815 41.6468 371.39 40.5303C373.965 39.4137 376.801 38.8555 379.9 38.8555ZM379.49 47.9473C378.556 47.9473 377.69 48.1523 376.893 48.5625C376.118 48.9499 375.4 49.5195 374.739 50.2715C374.101 51.0007 373.543 51.8893 373.064 52.9375C372.586 53.9629 372.199 55.1022 371.902 56.3555C374.249 55.9453 376.198 55.5124 377.747 55.0566C379.297 54.6009 380.538 54.1452 381.473 53.6895C382.407 53.2109 383.068 52.7438 383.455 52.2881C383.842 51.8096 384.036 51.3538 384.036 50.9209C384.036 50.5107 383.877 50.1234 383.558 49.7588C383.261 49.3942 382.885 49.0752 382.43 48.8018C381.974 48.5283 381.473 48.3232 380.926 48.1865C380.402 48.027 379.923 47.9473 379.49 47.9473Z" fill="url(#paint0_linear)"/>
<path d="M123.59 114.53H124.4V106.1L131.15 94.79H130.34L124.04 105.38H124.01L117.65 94.79H116.81L123.59 106.1V114.53ZM139.705 114.8C143.215 114.8 145.945 112.34 145.945 107.51V107.24C145.945 102.41 143.365 100.07 139.705 100.07C136.225 100.07 133.495 102.5 133.495 107.3V107.63C133.495 112.46 136.045 114.8 139.705 114.8ZM139.705 114.17C136.495 114.17 134.215 112.13 134.215 107.69V107.27C134.215 102.95 136.525 100.7 139.705 100.7C142.915 100.7 145.225 102.59 145.225 107.18V107.57C145.225 111.98 142.915 114.17 139.705 114.17ZM154.006 114.8C155.656 114.8 157.636 114.26 159.406 113.18H159.466L159.496 114.59H160.216V100.28H159.436V112.49C157.696 113.6 155.806 114.14 154.186 114.14C151.726 114.14 150.496 113.33 150.496 110.93V100.28H149.746V111.02C149.746 113.72 151.336 114.8 154.006 114.8ZM165.011 114.59H165.791V102.83C166.811 101.69 168.431 100.79 170.261 100.79C170.531 100.79 170.861 100.85 171.101 100.91V100.22C170.921 100.16 170.591 100.13 170.291 100.13C168.341 100.13 166.721 101.15 165.821 102.11H165.761V100.28H165.011V114.59ZM182.532 119.21H183.312V113.75C184.272 114.32 185.622 114.83 187.482 114.83C191.472 114.83 194.022 112.61 194.022 107.66V107.36C194.022 101.75 191.592 100.13 188.322 100.13C186.072 100.13 184.512 100.91 183.342 101.63H183.282V100.34H182.532V119.21ZM187.452 114.23C185.682 114.23 184.272 113.69 183.312 113.06V102.26C184.392 101.57 186.072 100.79 188.172 100.79C191.232 100.79 193.242 102.23 193.242 107.36V107.72C193.242 112.22 190.992 114.23 187.452 114.23ZM197.822 114.53H198.572V100.25H197.822V114.53ZM197.792 96.95H198.572V95.84H197.792V96.95ZM208.523 114.8C210.743 114.8 211.853 114.26 212.753 113.66V112.97C211.913 113.51 210.713 114.14 208.613 114.14C204.713 114.14 203.033 111.59 203.033 107.57V107.18C203.033 102.59 205.463 100.73 208.493 100.73C210.353 100.73 211.403 101.06 212.573 101.66V101.03C211.523 100.37 210.353 100.07 208.553 100.07C205.013 100.07 202.313 102.26 202.313 107.27V107.6C202.313 111.95 204.293 114.8 208.523 114.8ZM220.651 114.71C221.581 114.71 222.391 114.44 222.811 114.29V113.69C222.241 113.87 221.491 114.02 220.801 114.02C218.911 114.02 218.371 113.36 218.371 111.77V100.94H222.511V100.25H218.371V96.86H217.621V100.25H215.461V100.94H217.621V111.89C217.621 113.75 218.581 114.71 220.651 114.71ZM230.618 114.8C232.268 114.8 234.248 114.26 236.018 113.18H236.078L236.108 114.59H236.828V100.28H236.048V112.49C234.308 113.6 232.418 114.14 230.798 114.14C228.338 114.14 227.108 113.33 227.108 110.93V100.28H226.358V111.02C226.358 113.72 227.948 114.8 230.618 114.8ZM241.622 114.59H242.402V102.83C243.422 101.69 245.042 100.79 246.872 100.79C247.142 100.79 247.472 100.85 247.712 100.91V100.22C247.532 100.16 247.202 100.13 246.902 100.13C244.952 100.13 243.332 101.15 242.432 102.11H242.372V100.28H241.622V114.59ZM256.932 114.8C259.002 114.8 260.532 114.32 261.402 113.81V113.24C260.442 113.66 258.942 114.14 257.022 114.14C252.912 114.14 251.022 111.95 251.022 107.63V107.12H261.942V106.76C261.942 102.59 260.262 100.07 256.422 100.07C253.002 100.07 250.272 102.38 250.272 107.3V107.63C250.272 112.34 252.492 114.8 256.932 114.8ZM256.392 100.7C259.692 100.7 261.132 102.89 261.132 106.49H251.052C251.292 102.56 253.542 100.7 256.392 100.7ZM273.555 114.53H274.305V100.25H273.555V114.53ZM273.525 96.95H274.305V95.84H273.525V96.95ZM279.035 114.59H279.785V102.38C281.525 101.27 283.385 100.73 285.125 100.73C287.645 100.73 288.785 101.57 288.785 103.94V114.59H289.535V103.82C289.535 101.12 288.035 100.07 285.395 100.07C283.595 100.07 281.585 100.61 279.815 101.69H279.755V100.28H279.035V114.59ZM303.29 114.5H304.04V100.88H307.7V100.22H304.04V97.85C304.04 95.09 305.48 94.04 307.61 94.04C308.57 94.04 309.32 94.19 309.86 94.4V93.8C309.32 93.59 308.57 93.41 307.52 93.41C305 93.41 303.29 94.76 303.29 97.82V100.22H300.92V100.88H303.29V114.5ZM311.173 114.59H311.953V102.83C312.973 101.69 314.593 100.79 316.423 100.79C316.693 100.79 317.023 100.85 317.263 100.91V100.22C317.083 100.16 316.753 100.13 316.453 100.13C314.503 100.13 312.883 101.15 311.983 102.11H311.923V100.28H311.173V114.59ZM323.528 114.8C325.778 114.8 327.278 113.93 327.938 113.3H327.968L328.028 114.59H328.748V104.06C328.748 101.21 327.128 100.07 324.368 100.07C322.898 100.07 321.578 100.31 320.378 100.79V101.39C321.488 101.03 322.748 100.73 324.128 100.73C326.708 100.73 327.938 101.63 327.938 104.21V106.46L323.408 106.94C320.498 107.27 319.088 108.59 319.088 111.02C319.088 113.36 320.858 114.8 323.528 114.8ZM323.648 114.2C321.278 114.2 319.868 112.94 319.868 110.96C319.868 108.89 321.008 107.81 323.588 107.57L327.938 107.06V112.67C327.098 113.45 325.658 114.2 323.648 114.2ZM333.588 114.59H334.338V102.38C336.078 101.24 337.668 100.73 339.288 100.73C341.388 100.73 342.498 101.57 342.498 103.94V114.59H343.278V103.82C343.278 103.22 343.188 102.77 343.068 102.35C344.988 101.18 346.638 100.73 348.078 100.73C350.208 100.73 351.498 101.57 351.498 103.94V114.59H352.218V103.82C352.218 101.12 350.628 100.07 348.288 100.07C346.728 100.07 344.988 100.49 342.948 101.78H342.888C342.288 100.64 341.118 100.07 339.438 100.07C337.848 100.07 336.138 100.61 334.368 101.69H334.308V100.28H333.588V114.59ZM362.723 114.8C364.793 114.8 366.323 114.32 367.193 113.81V113.24C366.233 113.66 364.733 114.14 362.813 114.14C358.703 114.14 356.813 111.95 356.813 107.63V107.12H367.733V106.76C367.733 102.59 366.053 100.07 362.213 100.07C358.793 100.07 356.063 102.38 356.063 107.3V107.63C356.063 112.34 358.283 114.8 362.723 114.8ZM362.183 100.7C365.483 100.7 366.923 102.89 366.923 106.49H356.843C357.083 102.56 359.333 100.7 362.183 100.7Z" fill="#5A5A5A"/>
<rect y="22" width="81" height="95.85" fill="url(#paint1_linear)"/>
<rect x="8.1001" y="30.1001" width="63.45" height="58.05" fill="white"/>
<path d="M20.3278 106.006L20.572 102.667C20.6534 101.547 20.7136 100.725 20.7526 100.201C20.7917 99.6766 20.8112 99.4162 20.8112 99.4194C20.8145 99.3608 20.8177 99.312 20.821 99.2729C20.8243 99.2339 20.8308 99.2013 20.8405 99.1753C20.8503 99.1493 20.8633 99.1297 20.8796 99.1167C20.8959 99.1037 20.9203 99.0939 20.9528 99.0874L22.6423 98.6821C22.6846 98.6691 22.7285 98.6626 22.7741 98.6626C22.8197 98.6626 22.8506 98.6772 22.8669 98.7065C22.8832 98.7326 22.8913 98.7879 22.8913 98.8726C22.8685 99.0744 22.8506 99.2632 22.8376 99.439C22.8246 99.6147 22.8132 99.7824 22.8034 99.9419C22.7969 100.101 22.7904 100.256 22.7839 100.406C22.7774 100.552 22.7692 100.699 22.7595 100.845C22.7399 101.005 22.722 101.164 22.7058 101.324C22.6927 101.483 22.6797 101.649 22.6667 101.822C22.6537 101.991 22.639 102.172 22.6228 102.364C22.6097 102.553 22.5935 102.759 22.5739 102.984L22.3591 105.557C22.3558 105.586 22.3493 105.616 22.3396 105.645C22.333 105.671 22.3119 105.692 22.2761 105.708C22.2728 105.708 22.2533 105.715 22.2175 105.728C22.1817 105.741 22.1345 105.759 22.0759 105.782C22.0173 105.801 21.9489 105.822 21.8708 105.845C21.7927 105.868 21.7097 105.889 21.6218 105.909C21.4753 105.941 21.3467 105.974 21.236 106.006C21.1286 106.039 21.0326 106.068 20.9479 106.094C20.8633 106.124 20.7852 106.146 20.7136 106.163C20.642 106.179 20.5703 106.187 20.4987 106.187C20.4499 106.187 20.4092 106.174 20.3767 106.148C20.3441 106.122 20.3278 106.075 20.3278 106.006ZM27.4323 106.026C27.3965 106.036 27.3493 106.05 27.2907 106.07C27.2321 106.093 27.1752 106.104 27.1198 106.104C27.0743 106.104 27.0336 106.093 26.9978 106.07C26.9652 106.047 26.9489 106.008 26.9489 105.953V105.923C26.9685 105.748 26.9847 105.599 26.9978 105.479C27.0108 105.355 27.0222 105.245 27.0319 105.147C27.045 105.046 27.0547 104.947 27.0612 104.849C27.071 104.748 27.0824 104.633 27.0954 104.502C27.1084 104.369 27.1231 104.213 27.1394 104.034C27.1589 103.851 27.1817 103.625 27.2077 103.355C27.224 103.189 27.2386 103.02 27.2517 102.847C27.2647 102.675 27.2712 102.515 27.2712 102.369C27.2712 102.271 27.2631 102.181 27.2468 102.1C27.2338 102.015 27.2077 101.944 27.1687 101.885C27.1328 101.823 27.0824 101.776 27.0173 101.744C26.9522 101.711 26.8692 101.695 26.7683 101.695C26.6934 101.695 26.5892 101.711 26.4558 101.744C26.3256 101.776 26.1953 101.83 26.0651 101.905C25.9349 101.98 25.8194 102.079 25.7185 102.203C25.6175 102.323 25.5606 102.473 25.5476 102.652C25.528 102.893 25.5101 103.099 25.4938 103.272C25.4776 103.441 25.4629 103.586 25.4499 103.707C25.4369 103.824 25.4255 103.92 25.4157 103.995C25.4092 104.069 25.4043 104.133 25.4011 104.185C25.3978 104.198 25.3929 104.234 25.3864 104.292C25.3799 104.351 25.3718 104.421 25.362 104.502C25.3555 104.584 25.3474 104.67 25.3376 104.761C25.3311 104.852 25.3229 104.939 25.3132 105.02C25.3067 105.101 25.3002 105.171 25.2937 105.23C25.2904 105.289 25.2888 105.324 25.2888 105.337C25.2888 105.363 25.2888 105.386 25.2888 105.406C25.292 105.422 25.2937 105.438 25.2937 105.455C25.2937 105.481 25.2806 105.503 25.2546 105.523C25.2318 105.539 25.1781 105.559 25.0935 105.582L23.7995 106.026C23.7637 106.039 23.7165 106.055 23.6579 106.075C23.5993 106.094 23.5423 106.104 23.487 106.104C23.4414 106.104 23.4007 106.093 23.3649 106.07C23.3324 106.047 23.3161 106.008 23.3161 105.953L23.7604 100.962C23.7702 100.855 23.7816 100.782 23.7946 100.743C23.8109 100.7 23.8483 100.673 23.9069 100.66C24.2032 100.601 24.5075 100.542 24.82 100.484C25.1325 100.422 25.4369 100.344 25.7331 100.25C25.7591 100.25 25.7738 100.254 25.7771 100.264C25.7836 100.271 25.7868 100.282 25.7868 100.298C25.7868 100.305 25.7852 100.315 25.7819 100.328C25.7819 100.341 25.7771 100.37 25.7673 100.416C25.7608 100.461 25.7494 100.531 25.7331 100.625C25.7201 100.717 25.7006 100.845 25.6745 101.011C25.8991 100.881 26.1091 100.777 26.3044 100.699C26.503 100.617 26.6885 100.556 26.861 100.513C27.0368 100.468 27.2012 100.438 27.3542 100.425C27.5072 100.409 27.6504 100.401 27.7839 100.401C28.2429 100.401 28.5765 100.541 28.7849 100.821C28.9932 101.097 29.0974 101.514 29.0974 102.071C29.0974 102.149 29.0957 102.23 29.0925 102.315C29.0892 102.396 29.0827 102.481 29.0729 102.569L28.8483 104.668C28.8321 104.805 28.8223 104.932 28.819 105.049C28.8158 105.163 28.8142 105.297 28.8142 105.45C28.8142 105.476 28.8142 105.499 28.8142 105.518C28.8174 105.534 28.819 105.549 28.819 105.562C28.819 105.591 28.806 105.614 28.78 105.63C28.7572 105.647 28.7035 105.668 28.6188 105.694L27.4323 106.026ZM34.5563 101.836C34.5433 101.885 34.5189 101.955 34.4831 102.046C34.4473 102.138 34.4066 102.242 34.361 102.359C34.3155 102.473 34.265 102.595 34.2097 102.725C34.1543 102.852 34.1006 102.977 34.0485 103.101C34.0257 103.156 33.9981 103.197 33.9655 103.223C33.9362 103.249 33.8744 103.264 33.78 103.267L32.3542 103.292L32.1784 105.459C32.1752 105.489 32.167 105.518 32.154 105.547C32.141 105.573 32.1215 105.595 32.0954 105.611C32.0856 105.617 32.0466 105.637 31.9782 105.669C31.9131 105.699 31.8301 105.735 31.7292 105.777C31.6283 105.819 31.5176 105.865 31.3972 105.914C31.2767 105.962 31.1579 106.006 31.0407 106.045C30.9235 106.088 30.8161 106.122 30.7185 106.148C30.6208 106.177 30.5443 106.192 30.489 106.192C30.4239 106.192 30.3636 106.179 30.3083 106.153C30.2562 106.13 30.2302 106.081 30.2302 106.006C30.2269 105.844 30.2302 105.665 30.2399 105.469C30.253 105.271 30.2676 105.07 30.2839 104.869C30.3002 104.664 30.3181 104.463 30.3376 104.268C30.3571 104.069 30.3734 103.889 30.3864 103.726L30.4206 103.316C30.1472 103.316 29.9519 103.309 29.8347 103.296C29.7175 103.28 29.6589 103.241 29.6589 103.179C29.6589 103.137 29.6833 103.082 29.7321 103.013C29.8005 102.919 29.877 102.805 29.9616 102.671C30.0495 102.538 30.1325 102.408 30.2106 102.281C30.292 102.154 30.362 102.042 30.4206 101.944C30.4825 101.846 30.5215 101.786 30.5378 101.763L30.6306 100.42C30.5687 100.42 30.515 100.422 30.4694 100.425C30.4239 100.425 30.3815 100.427 30.3425 100.43C30.3067 100.43 30.2725 100.432 30.2399 100.435C30.2074 100.435 30.1732 100.435 30.1374 100.435C29.9812 100.435 29.8688 100.427 29.8005 100.411C29.7354 100.391 29.7028 100.357 29.7028 100.308C29.7028 100.285 29.7224 100.238 29.7614 100.167C29.8005 100.095 29.8477 100.014 29.903 99.9224C29.9616 99.828 30.0235 99.7303 30.0886 99.6294C30.1569 99.5252 30.2172 99.4292 30.2692 99.3413L30.5622 98.8433L32.7839 98.7651C33.0703 98.7554 33.3552 98.7456 33.6384 98.7358C33.9216 98.7228 34.182 98.7114 34.4196 98.7017C34.6605 98.6919 34.8672 98.6838 35.0397 98.6772C35.2123 98.6675 35.3327 98.661 35.4011 98.6577C35.4043 98.6577 35.4125 98.6593 35.4255 98.6626C35.4418 98.6626 35.458 98.6675 35.4743 98.6772C35.4906 98.6838 35.5052 98.6968 35.5183 98.7163C35.5345 98.7358 35.5427 98.7635 35.5427 98.7993C35.5427 98.8188 35.5199 98.884 35.4743 98.9946C35.4287 99.1053 35.3636 99.2697 35.279 99.4878L35.0642 100.054C35.0414 100.11 35.0153 100.152 34.986 100.181C34.9567 100.21 34.8949 100.227 34.8005 100.23C34.6898 100.233 34.5775 100.238 34.4636 100.245C34.3496 100.251 34.2325 100.258 34.112 100.264L32.6276 100.337C32.6081 100.464 32.5935 100.559 32.5837 100.621C32.5772 100.682 32.5723 100.735 32.569 100.777C32.569 100.816 32.569 100.857 32.569 100.899C32.569 100.938 32.5674 101.001 32.5642 101.089C32.5609 101.151 32.556 101.203 32.5495 101.246C32.5463 101.288 32.5414 101.33 32.5349 101.373C32.5316 101.412 32.5267 101.454 32.5202 101.5C32.517 101.545 32.5137 101.602 32.5104 101.67C32.7253 101.664 32.9353 101.657 33.1403 101.651C33.3487 101.644 33.5391 101.638 33.7116 101.631C33.8874 101.625 34.0388 101.62 34.1657 101.617C34.2927 101.61 34.3822 101.607 34.4343 101.607C34.4603 101.607 34.4896 101.617 34.5222 101.636C34.5547 101.656 34.571 101.693 34.571 101.749C34.571 101.775 34.5661 101.804 34.5563 101.836ZM39.0632 101.875C38.9948 101.869 38.9183 101.862 38.8337 101.856C38.7491 101.846 38.6595 101.841 38.5651 101.841C38.4219 101.841 38.2754 101.854 38.1257 101.88C37.9792 101.903 37.8425 101.95 37.7155 102.022C37.5886 102.094 37.4795 102.193 37.3884 102.32C37.2972 102.444 37.2386 102.605 37.2126 102.803C37.1898 103.044 37.1703 103.243 37.154 103.399C37.141 103.552 37.1312 103.679 37.1247 103.78C37.1182 103.877 37.1117 103.957 37.1052 104.019C37.1019 104.078 37.0987 104.133 37.0954 104.185C37.0954 104.198 37.0922 104.234 37.0856 104.292C37.0824 104.351 37.0759 104.419 37.0661 104.498C37.0563 104.576 37.0466 104.66 37.0368 104.751C37.0303 104.843 37.0222 104.927 37.0124 105.005C37.0026 105.083 36.9945 105.152 36.988 105.21C36.9847 105.269 36.9831 105.305 36.9831 105.318C36.9831 105.344 36.9831 105.367 36.9831 105.386C36.9864 105.403 36.988 105.419 36.988 105.435C36.988 105.461 36.975 105.484 36.9489 105.503C36.9261 105.52 36.8724 105.539 36.7878 105.562L35.4938 106.026C35.458 106.039 35.4108 106.055 35.3522 106.075C35.2937 106.094 35.2367 106.104 35.1813 106.104C35.1358 106.104 35.0951 106.093 35.0593 106.07C35.0267 106.047 35.0104 106.008 35.0104 105.953L35.4304 101.114C35.4401 101.006 35.4515 100.933 35.4646 100.894C35.4808 100.852 35.5183 100.824 35.5769 100.811C35.8731 100.752 36.1791 100.694 36.4948 100.635C36.8106 100.573 37.1166 100.495 37.4128 100.401C37.4388 100.401 37.4535 100.406 37.4567 100.416C37.4632 100.422 37.4665 100.433 37.4665 100.45C37.4665 100.456 37.4649 100.466 37.4616 100.479C37.4616 100.492 37.4567 100.521 37.447 100.567C37.4405 100.612 37.4291 100.682 37.4128 100.777C37.3998 100.868 37.3802 100.997 37.3542 101.163C37.5039 101.045 37.6683 100.938 37.8474 100.84C38.0297 100.743 38.2119 100.66 38.3942 100.591C38.5765 100.52 38.7523 100.464 38.9216 100.425C39.0909 100.383 39.239 100.362 39.3659 100.362L39.0632 101.875ZM44.3806 104.869C44.3773 104.882 44.3757 104.895 44.3757 104.908C44.3757 104.917 44.3757 104.927 44.3757 104.937C44.3757 105.018 44.3887 105.087 44.4147 105.142C44.4408 105.194 44.4685 105.238 44.4978 105.274C44.5303 105.306 44.5596 105.334 44.5856 105.357C44.6117 105.376 44.6247 105.394 44.6247 105.411C44.6247 105.456 44.5759 105.499 44.4782 105.538L43.1647 106.099C43.1615 106.102 43.1501 106.104 43.1306 106.104C43.1045 106.104 43.0785 106.081 43.0524 106.036C43.0264 105.99 43.0004 105.931 42.9743 105.86C42.9515 105.792 42.9287 105.718 42.906 105.64C42.8864 105.559 42.8685 105.484 42.8522 105.416C42.6472 105.653 42.4258 105.827 42.1882 105.938C41.9506 106.049 41.7146 106.104 41.4802 106.104C41.2067 106.104 40.9398 106.044 40.6794 105.923C40.419 105.803 40.1879 105.632 39.986 105.411C39.7842 105.186 39.6215 104.916 39.4978 104.6C39.3773 104.284 39.3171 103.93 39.3171 103.536C39.3171 103.07 39.3838 102.645 39.5173 102.261C39.654 101.877 39.8379 101.547 40.069 101.27C40.3002 100.993 40.5687 100.78 40.8747 100.63C41.184 100.477 41.5111 100.401 41.8562 100.401C42.1003 100.401 42.3314 100.451 42.5495 100.552C42.7676 100.65 42.9743 100.777 43.1696 100.933C43.1892 100.835 43.2006 100.757 43.2038 100.699C43.2071 100.64 43.2136 100.595 43.2233 100.562C43.2364 100.529 43.2591 100.508 43.2917 100.499C43.3243 100.486 43.378 100.476 43.4528 100.469C43.6872 100.437 43.92 100.407 44.1511 100.381C44.3854 100.352 44.6296 100.331 44.8835 100.318L44.3806 104.869ZM42.9206 103.028C42.9532 102.842 42.9743 102.668 42.9841 102.505C42.9971 102.339 43.0069 102.188 43.0134 102.051C42.9613 102.012 42.9043 101.972 42.8425 101.929C42.7839 101.887 42.7188 101.848 42.6472 101.812C42.5788 101.773 42.5056 101.742 42.4274 101.719C42.3526 101.696 42.2728 101.685 42.1882 101.685C42.0124 101.685 41.8643 101.742 41.7438 101.856C41.6267 101.97 41.5306 102.11 41.4558 102.276C41.3841 102.442 41.3321 102.618 41.2995 102.803C41.2702 102.989 41.2556 103.153 41.2556 103.296C41.2556 103.811 41.3223 104.188 41.4558 104.429C41.5925 104.667 41.7813 104.786 42.0222 104.786C42.1198 104.786 42.2289 104.758 42.3493 104.703C42.4698 104.647 42.5918 104.571 42.7155 104.473L42.9206 103.028ZM52.5935 106.026C52.5576 106.036 52.5104 106.05 52.4519 106.07C52.3933 106.093 52.3363 106.104 52.281 106.104C52.2354 106.104 52.1947 106.093 52.1589 106.07C52.1263 106.047 52.1101 106.008 52.1101 105.953V105.923C52.1328 105.686 52.1524 105.494 52.1687 105.347C52.1849 105.197 52.1979 105.077 52.2077 104.986C52.2175 104.895 52.2256 104.826 52.2321 104.781C52.2386 104.732 52.2451 104.688 52.2517 104.649C52.2582 104.607 52.2631 104.561 52.2663 104.512C52.2728 104.463 52.281 104.395 52.2907 104.307C52.3005 104.216 52.3119 104.097 52.3249 103.951C52.3412 103.801 52.3607 103.606 52.3835 103.365C52.3965 103.235 52.4095 103.106 52.4226 102.979C52.4388 102.849 52.447 102.73 52.447 102.623C52.447 102.486 52.4388 102.362 52.4226 102.251C52.4095 102.138 52.3835 102.042 52.3444 101.963C52.3086 101.882 52.2582 101.819 52.1931 101.773C52.128 101.727 52.045 101.705 51.944 101.705C51.8822 101.705 51.8008 101.718 51.6999 101.744C51.6022 101.77 51.503 101.817 51.4021 101.885C51.3011 101.95 51.21 102.038 51.1286 102.149C51.0472 102.256 50.9951 102.393 50.9724 102.559V102.579C50.9333 102.95 50.8975 103.272 50.8649 103.545C50.8356 103.816 50.8096 104.048 50.7868 104.244C50.764 104.439 50.7445 104.602 50.7282 104.732C50.7152 104.862 50.7038 104.973 50.694 105.064C50.6843 105.152 50.6761 105.225 50.6696 105.284C50.6664 105.342 50.6647 105.398 50.6647 105.45C50.6647 105.476 50.6647 105.499 50.6647 105.518C50.668 105.534 50.6696 105.549 50.6696 105.562C50.6696 105.588 50.6566 105.611 50.6306 105.63C50.6078 105.647 50.5541 105.668 50.4694 105.694L49.322 106.026C49.2862 106.036 49.239 106.05 49.1804 106.07C49.1218 106.093 49.0648 106.104 49.0095 106.104C48.9639 106.104 48.9232 106.093 48.8874 106.07C48.8548 106.047 48.8386 106.008 48.8386 105.953V105.923C48.8614 105.686 48.8793 105.494 48.8923 105.347C48.9086 105.197 48.9216 105.077 48.9313 104.986C48.9444 104.895 48.9541 104.826 48.9606 104.781C48.9672 104.732 48.972 104.688 48.9753 104.649C48.9818 104.607 48.9883 104.561 48.9948 104.512C49.0013 104.463 49.0078 104.395 49.0144 104.307C49.0241 104.216 49.0355 104.097 49.0485 103.951C49.0648 103.801 49.0843 103.606 49.1071 103.365C49.1201 103.235 49.1332 103.106 49.1462 102.979C49.1625 102.849 49.1706 102.73 49.1706 102.623C49.1706 102.486 49.1641 102.362 49.1511 102.251C49.1381 102.138 49.1136 102.042 49.0778 101.963C49.0453 101.882 48.9997 101.819 48.9411 101.773C48.8825 101.727 48.8076 101.705 48.7165 101.705C48.6514 101.705 48.5619 101.721 48.4479 101.753C48.3373 101.786 48.225 101.84 48.111 101.915C48.0004 101.989 47.9011 102.089 47.8132 102.212C47.7285 102.333 47.6797 102.483 47.6667 102.662C47.6407 102.903 47.6195 103.101 47.6032 103.257C47.5869 103.41 47.5739 103.537 47.5642 103.638C47.5544 103.736 47.5463 103.816 47.5397 103.877C47.5365 103.936 47.5332 103.991 47.53 104.043C47.5267 104.056 47.5218 104.094 47.5153 104.156C47.5088 104.214 47.5007 104.286 47.4909 104.371C47.4844 104.452 47.4763 104.542 47.4665 104.639C47.46 104.734 47.4535 104.823 47.447 104.908C47.4405 104.989 47.434 105.061 47.4274 105.123C47.4242 105.181 47.4226 105.217 47.4226 105.23V105.318C47.4226 105.35 47.4209 105.378 47.4177 105.401C47.4144 105.424 47.4047 105.445 47.3884 105.464C47.3721 105.484 47.3477 105.502 47.3151 105.518C47.2858 105.534 47.2435 105.552 47.1882 105.572L45.9089 106.026C45.8731 106.039 45.8259 106.055 45.7673 106.075C45.7087 106.094 45.6517 106.104 45.5964 106.104C45.5508 106.104 45.5101 106.093 45.4743 106.07C45.4418 106.047 45.4255 106.008 45.4255 105.953L45.8649 100.972C45.8747 100.865 45.8861 100.792 45.8991 100.752C45.9154 100.71 45.9528 100.682 46.0114 100.669C46.3076 100.611 46.6104 100.552 46.9196 100.494C47.2289 100.432 47.5316 100.354 47.8278 100.259C47.8539 100.259 47.8685 100.264 47.8718 100.274C47.8783 100.28 47.8815 100.292 47.8815 100.308L47.8181 101.021C47.9385 100.959 48.0736 100.892 48.2233 100.821C48.3731 100.746 48.5293 100.678 48.6921 100.616C48.8581 100.554 49.0257 100.503 49.195 100.464C49.3675 100.422 49.5352 100.401 49.6979 100.401C49.9226 100.401 50.1293 100.453 50.3181 100.557C50.5101 100.658 50.668 100.827 50.7917 101.065C50.9382 100.971 51.0928 100.883 51.2556 100.801C51.4216 100.72 51.5892 100.65 51.7585 100.591C51.931 100.533 52.1035 100.487 52.2761 100.455C52.4486 100.422 52.6162 100.406 52.779 100.406C52.9841 100.406 53.1778 100.435 53.3601 100.494C53.5423 100.552 53.7002 100.648 53.8337 100.782C53.9704 100.915 54.0778 101.089 54.156 101.304C54.2341 101.516 54.2731 101.775 54.2731 102.081C54.2731 102.159 54.2715 102.24 54.2683 102.325C54.265 102.406 54.2585 102.491 54.2487 102.579L54.0241 104.668C54.0078 104.805 53.9981 104.932 53.9948 105.049C53.9916 105.163 53.9899 105.297 53.9899 105.45C53.9899 105.476 53.9899 105.499 53.9899 105.518C53.9932 105.534 53.9948 105.549 53.9948 105.562C53.9948 105.591 53.9818 105.614 53.9558 105.63C53.933 105.647 53.8793 105.668 53.7946 105.694L52.5935 106.026ZM57.9206 100.401C58.2298 100.401 58.5098 100.459 58.7604 100.577C59.0144 100.691 59.2308 100.84 59.4099 101.026C59.5922 101.208 59.7321 101.413 59.8298 101.641C59.9274 101.869 59.9763 102.097 59.9763 102.325C59.9763 102.527 59.9144 102.73 59.7907 102.935C59.667 103.137 59.4929 103.319 59.2683 103.482C59.0469 103.645 58.78 103.777 58.4675 103.877C58.155 103.978 57.8116 104.029 57.4372 104.029C57.2419 104.029 57.0368 104.009 56.822 103.97C56.835 104.11 56.8757 104.231 56.944 104.332C57.0124 104.432 57.0987 104.515 57.2028 104.581C57.307 104.646 57.4242 104.694 57.5544 104.727C57.6879 104.756 57.8246 104.771 57.9646 104.771C58.1208 104.771 58.2705 104.758 58.4138 104.732C58.5603 104.703 58.7002 104.665 58.8337 104.62C58.9672 104.574 59.0957 104.524 59.2194 104.468C59.3431 104.413 59.4603 104.358 59.571 104.302C59.6003 104.296 59.6247 104.291 59.6442 104.288C59.667 104.281 59.6882 104.278 59.7077 104.278C59.7077 104.278 59.7061 104.304 59.7028 104.356C59.7028 104.408 59.7028 104.481 59.7028 104.576C59.7028 104.67 59.7012 104.784 59.6979 104.917C59.6979 105.051 59.6963 105.199 59.6931 105.362C59.7028 105.378 59.7093 105.394 59.7126 105.411C59.7159 105.427 59.7175 105.44 59.7175 105.45C59.7175 105.489 59.6817 105.531 59.6101 105.577C59.5384 105.622 59.444 105.669 59.3269 105.718C59.2129 105.767 59.0811 105.814 58.9313 105.86C58.7849 105.905 58.6351 105.946 58.4821 105.982C58.3291 106.021 58.181 106.05 58.0378 106.07C57.8946 106.093 57.7692 106.104 57.6618 106.104C57.3103 106.104 56.9685 106.042 56.6364 105.918C56.3076 105.798 56.0147 105.624 55.7575 105.396C55.5036 105.168 55.3002 104.891 55.1472 104.566C54.9942 104.24 54.9177 103.874 54.9177 103.467C54.9177 103.041 54.9909 102.642 55.1374 102.271C55.2839 101.897 55.489 101.571 55.7526 101.294C56.0196 101.018 56.3369 100.8 56.7048 100.64C57.0726 100.481 57.4779 100.401 57.9206 100.401ZM57.862 101.7C57.7285 101.7 57.6048 101.729 57.4909 101.788C57.3802 101.843 57.2777 101.924 57.1833 102.032C57.0922 102.136 57.0124 102.263 56.944 102.413C56.8757 102.559 56.8203 102.722 56.778 102.901C57.1133 102.842 57.3916 102.78 57.613 102.715C57.8343 102.65 58.0118 102.585 58.1452 102.52C58.2787 102.452 58.3731 102.385 58.4284 102.32C58.4838 102.251 58.5114 102.186 58.5114 102.125C58.5114 102.066 58.4886 102.011 58.4431 101.958C58.4007 101.906 58.347 101.861 58.2819 101.822C58.2168 101.783 58.1452 101.753 58.0671 101.734C57.9922 101.711 57.9239 101.7 57.862 101.7Z" fill="white"/>
<defs>
<linearGradient id="paint0_linear" x1="112" y1="0" x2="177.46" y2="169.388" gradientUnits="userSpaceOnUse">
<stop stop-color="#7E98D4"/>
<stop offset="1" stop-color="#FBBAC8"/>
</linearGradient>
<linearGradient id="paint1_linear" x1="0" y1="22" x2="86.7989" y2="112.274" gradientUnits="userSpaceOnUse">
<stop stop-color="#7F99D5"/>
<stop offset="1" stop-color="#F9BAC9"/>
</linearGradient>
</defs>
</svg>
