<svg width="150" height="158" viewBox="0 0 150 158" fill="none" xmlns="http://www.w3.org/2000/svg">
<path d="M16.5423 21.2193L26.5761 29.1667" stroke="#FF6D6E" stroke-width="6" stroke-linecap="round"/>
<path d="M29.4765 4L35.8354 15.4171" stroke="#FF6D6E" stroke-width="6" stroke-linecap="round"/>
<path d="M119.226 5.32455L113.936 17.3341" stroke="#FF6D6E" stroke-width="6" stroke-linecap="round"/>
<path d="M132.417 18.7274L123.152 27.6563" stroke="#FF6D6E" stroke-width="6" stroke-linecap="round"/>
<ellipse cx="74.8641" cy="62.943" rx="53.3048" ry="50.9956" fill="#FF8685"/>
<g filter="url(#filter0_d)">
<rect x="4" y="64.9298" width="141.728" height="49.0088" rx="5" fill="white"/>
</g>
<path d="M59.9463 124.45L56.1523 137.028H63.7402L59.9463 124.45ZM61.2109 122.57L68.833 146.564H66.6113L64.3213 138.874H55.6055L53.2812 146.564H51.0938L58.7158 122.57H61.2109ZM81.2744 131.56C80.7048 131.56 80.0781 131.651 79.3945 131.833C78.7109 132.015 78.0615 132.277 77.4463 132.619C76.8538 132.984 76.2956 133.508 75.7715 134.191C75.2474 134.852 74.8942 135.604 74.7119 136.447C74.5296 137.45 74.4385 138.498 74.4385 139.592V146.564H72.4902V129.885H74.4385V133.85C75.4183 132.209 76.4437 131.092 77.5146 130.5C78.6995 129.816 79.9528 129.475 81.2744 129.475V131.56ZM93.5107 131.56C92.9411 131.56 92.3145 131.651 91.6309 131.833C90.9473 132.015 90.2979 132.277 89.6826 132.619C89.0902 132.984 88.5319 133.508 88.0078 134.191C87.4837 134.852 87.1305 135.604 86.9482 136.447C86.766 137.45 86.6748 138.498 86.6748 139.592V146.564H84.7266V129.885H86.6748V133.85C87.6546 132.209 88.68 131.092 89.751 130.5C90.9359 129.816 92.1891 129.475 93.5107 129.475V131.56ZM100.107 148.239H96.5869V144.479H100.107V148.239Z" fill="black"/>
<defs>
<filter id="filter0_d" x="0" y="64.9298" width="149.728" height="57.0088" filterUnits="userSpaceOnUse" color-interpolation-filters="sRGB">
<feFlood flood-opacity="0" result="BackgroundImageFix"/>
<feColorMatrix in="SourceAlpha" type="matrix" values="0 0 0 0 0 0 0 0 0 0 0 0 0 0 0 0 0 0 127 0" result="hardAlpha"/>
<feOffset dy="4"/>
<feGaussianBlur stdDeviation="2"/>
<feColorMatrix type="matrix" values="0 0 0 0 0 0 0 0 0 0 0 0 0 0 0 0 0 0 0.25 0"/>
<feBlend mode="normal" in2="BackgroundImageFix" result="effect1_dropShadow"/>
<feBlend mode="normal" in="SourceGraphic" in2="effect1_dropShadow" result="shape"/>
</filter>
</defs>
</svg>
